<?xml version="1.0" standalone="no"?>
<!DOCTYPE svg PUBLIC "-//W3C//DTD SVG 20010904//EN"
 "http://www.w3.org/TR/2001/REC-SVG-20010904/DTD/svg10.dtd">
<svg version="1.0" xmlns="http://www.w3.org/2000/svg"
 width="512.000000pt" height="512.000000pt" viewBox="0 0 512.000000 512.000000"
 preserveAspectRatio="xMidYMid meet">
<metadata>
Created by potrace 1.11, written by Peter Selinger 2001-2013
</metadata>
<g transform="translate(0.000000,512.000000) scale(0.100000,-0.100000)"
fill="#000000" stroke="none">
<path d="M2433 4835 c-68 -19 -94 -32 -358 -185 -423 -246 -1181 -684 -1250
-723 -180 -103 -242 -168 -291 -307 l-23 -65 0 -985 c-1 -804 2 -994 13 -1036
21 -81 75 -171 131 -222 42 -38 773 -470 1388 -821 23 -13 107 -61 187 -107
167 -96 241 -119 355 -111 95 7 140 26 354 150 101 59 189 107 195 107 6 0 27
-10 46 -22 34 -20 61 -36 138 -79 42 -24 250 -146 302 -178 129 -78 205 -100
333 -97 126 4 165 17 327 111 69 40 177 103 240 139 163 95 203 138 193 210
-11 77 -41 103 -273 233 -93 53 -290 168 -333 195 l-48 31 53 30 c294 166 365
220 420 323 60 111 58 79 57 1139 -1 1049 1 1016 -55 1127 -49 96 -118 152
-374 299 -129 75 -498 289 -820 475 -322 186 -610 347 -640 358 -72 25 -199
30 -267 11z m210 -1038 c29 -13 361 -202 724 -413 17 -11 71 -41 118 -69 100
-57 149 -108 170 -179 23 -76 22 -1079 -1 -1155 -27 -92 -77 -128 -548 -394
-28 -16 -140 -81 -250 -145 -109 -64 -220 -121 -245 -128 -85 -22 -143 -8
-266 64 -68 40 -223 131 -260 152 -381 219 -555 324 -581 348 -17 16 -42 52
-55 78 l-24 49 0 555 c0 554 0 555 22 600 35 70 84 109 263 213 91 52 290 167
444 256 153 88 297 167 320 175 49 17 117 14 169 -7z"/>
</g>
</svg>
