<?xml version="1.0" standalone="no"?>
<!DOCTYPE svg PUBLIC "-//W3C//DTD SVG 1.1//EN" "http://www.w3.org/Graphics/SVG/1.1/DTD/svg11.dtd" >
<svg xmlns="http://www.w3.org/2000/svg" xmlns:xlink="http://www.w3.org/1999/xlink" version="1.1">
<metadata>
Created by FontForge 20151013 at Mon Nov 30 20:06:03 2015
 By root

</metadata>
<defs>
<font id="OstrichSansRounded-Medium" horiz-adv-x="833" >
  <font-face 
    font-family="Ostrich Sans Rounded Medium"
    font-weight="500"
    font-stretch="normal"
    units-per-em="1000"
    panose-1="0 0 6 0 0 0 0 0 0 0"
    ascent="750"
    descent="-250"
    x-height="673"
    cap-height="674"
    bbox="-20 -39 603.78 676.375"
    underline-thickness="50"
    underline-position="-75"
    unicode-range="U+000D-2122"
  />
<missing-glyph horiz-adv-x="210" 
 />
    <glyph glyph-name=".notdef" horiz-adv-x="210" 
 />
    <glyph glyph-name="A" unicode="A" horiz-adv-x="392" 
d="M342 19l-149 643c-2 8 -7 12 -16 12c-8 0 -13 -4 -15 -12l-149 -643c-3 -8 3 -16 12 -19c8 -3 16 4 19 12l45 194h177l45 -194c2 -8 7 -12 15 -12h4c8 3 15 11 12 19zM177 589l82 -352h-163z" />
    <glyph glyph-name="B" unicode="B" horiz-adv-x="336" 
d="M30 0h95c103 0 149 59 149 176c0 59 -12 103 -35 132c-10 12 -22 22 -37 29c15 8 26 17 37 30c23 29 35 73 35 131c0 117 -46 176 -149 176h-95c-9 0 -16 -7 -16 -15v-643c0 -11 5 -16 16 -16zM46 643h79c84 0 117 -41 117 -145c0 -103 -34 -145 -117 -145h-79v290z
M46 322h79c83 0 117 -42 117 -146s-33 -145 -117 -145h-79v291z" />
    <glyph glyph-name="C" unicode="C" horiz-adv-x="344" 
d="M10 496v-317c0 -75 19 -118 47 -145s64 -34 96 -34c33 0 69 7 97 34s47 70 47 145c0 11 -5 16 -16 16s-16 -5 -16 -16c0 -100 -37 -148 -112 -148c-72 0 -112 48 -112 148v317c0 100 39 147 112 147c76 0 112 -47 112 -147c0 -11 5 -16 16 -16s16 5 16 16
c0 73 -19 119 -47 145s-64 33 -97 33c-32 0 -68 -7 -96 -33s-47 -72 -47 -145z" />
    <glyph glyph-name="D" unicode="D" horiz-adv-x="348" 
d="M28 0h99c107 0 156 62 156 182v310c0 120 -49 182 -156 182h-99c-9 0 -16 -7 -16 -15v-643c0 -11 5 -16 16 -16zM43 643h84c87 0 124 -47 124 -151v-310c0 -104 -37 -151 -124 -151h-84v612z" />
    <glyph glyph-name="E" unicode="E" horiz-adv-x="312" 
d="M42 322h195c9 0 16 7 16 15c0 11 -5 16 -16 16h-195v290h195c11 0 16 5 16 16c0 8 -7 15 -16 15h-210c-9 0 -16 -7 -16 -15v-643c0 -11 5 -16 16 -16h210c11 0 16 5 16 16c0 8 -7 15 -16 15h-195v291z" />
    <glyph glyph-name="F" unicode="F" horiz-adv-x="308" 
d="M46 353v290h195c11 0 16 5 16 16c0 8 -7 15 -16 15h-210c-9 0 -16 -7 -16 -15v-643c0 -11 5 -16 16 -16c8 0 15 7 15 16v306h195c9 0 16 7 16 15c0 11 -5 16 -16 16h-195z" />
    <glyph glyph-name="G" unicode="G" horiz-adv-x="352" 
d="M7 497v-319c0 -116 49 -178 144 -178s144 62 144 178v104c0 11 -5 16 -16 16h-146c-11 0 -16 -5 -16 -16s5 -16 16 -16h130v-88c0 -103 -39 -147 -112 -147s-113 47 -113 147v319c0 65 17 102 39 122s50 24 74 24s52 -4 74 -24s38 -57 38 -122c0 -11 5 -16 16 -16
s16 5 16 16c0 116 -48 177 -144 177s-144 -61 -144 -177z" />
    <glyph glyph-name="H" unicode="H" horiz-adv-x="344" 
d="M280 16v643c0 8 -7 15 -16 15s-16 -7 -16 -15v-306h-204v306c0 8 -7 15 -16 15s-16 -7 -16 -15v-643c0 -11 5 -16 16 -16s16 5 16 16v305h204v-305c0 -11 5 -16 16 -16s16 5 16 16z" />
    <glyph glyph-name="I" unicode="I" horiz-adv-x="105" 
d="M18 659v-643c0 -11 5 -16 16 -16s16 5 16 16v643c0 8 -7 15 -16 15s-16 -7 -16 -15z" />
    <glyph glyph-name="J" unicode="J" horiz-adv-x="324" 
d="M236 659v-494c0 -92 -35 -134 -102 -134c-23 0 -48 3 -68 22s-35 52 -35 112c0 8 -7 16 -15 16c-9 0 -16 -8 -16 -16c0 -109 45 -165 134 -165s133 56 133 165v494c0 8 -7 15 -15 15c-9 0 -16 -7 -16 -15z" />
    <glyph glyph-name="K" unicode="K" horiz-adv-x="360" 
d="M127 364l190 286c5 7 3 17 -4 22c-7 4 -17 3 -22 -5l-252 -376v368c0 8 -7 15 -15 15c-9 0 -16 -7 -16 -15v-643c0 -11 5 -16 16 -16c8 0 15 7 15 16v217l68 102l183 -327c3 -5 8 -8 14 -8l8 2c7 4 10 14 6 21z" />
    <glyph glyph-name="L" unicode="L" horiz-adv-x="295" 
d="M21 0h226c11 0 16 5 16 16c0 8 -7 15 -16 15h-211v628c0 8 -7 15 -15 15c-9 0 -16 -7 -16 -15v-643c0 -11 5 -16 16 -16z" />
    <glyph glyph-name="M" unicode="M" horiz-adv-x="473" 
d="M376 546v-530c0 -11 5 -16 16 -16c8 0 16 7 16 16v643c0 17 -26 21 -31 4l-170 -590l-169 590c-5 17 -31 13 -31 -4v-643c0 -11 5 -16 16 -16s16 5 16 16v530l153 -535c3 -7 8 -11 15 -11c8 0 13 4 16 11z" />
    <glyph glyph-name="N" unicode="N" horiz-adv-x="360" 
d="M285 0h3c9 2 13 7 13 16v643c0 8 -7 15 -16 15s-16 -7 -16 -15v-562l-228 567c-7 16 -31 12 -31 -5v-643c0 -11 5 -16 16 -16s16 5 16 16v561l229 -567c2 -7 7 -10 14 -10z" />
    <glyph glyph-name="O" unicode="O" horiz-adv-x="348" 
d="M10 496v-317c0 -75 19 -118 47 -145s64 -34 96 -34c33 0 69 7 97 34s47 70 47 145v317c0 116 -48 178 -144 178c-95 0 -143 -63 -143 -178zM41 179v317c0 100 36 147 112 147c75 0 112 -44 112 -147v-317c0 -104 -39 -148 -112 -148c-75 0 -112 47 -112 148z" />
    <glyph glyph-name="P" unicode="P" horiz-adv-x="340" 
d="M10 659v-643c0 -11 5 -16 16 -16s16 5 16 16v306h90c108 0 156 57 156 176s-48 176 -156 176h-106c-9 0 -16 -7 -16 -15zM42 643h90c88 0 124 -41 124 -145s-37 -145 -124 -145h-90v290z" />
    <glyph glyph-name="Q" unicode="Q" horiz-adv-x="348" 
d="M295 1l-38 46c0 1 0 1 1 1v1c23 30 35 74 35 133v317c0 117 -47 175 -143 175c-95 0 -143 -60 -143 -175v-317c0 -115 48 -182 143 -182c35 0 63 8 84 25l36 -44c3 -4 7 -6 13 -6c4 0 7 1 9 4c7 5 8 15 3 22zM180 92l34 -43c-17 -12 -39 -18 -64 -18
c-73 0 -112 50 -112 151v317c0 99 37 144 112 144s112 -45 112 -144v-317c0 -48 -9 -85 -26 -110l-32 40c-7 7 -14 7 -22 2c-7 -7 -9 -15 -2 -22z" />
    <glyph glyph-name="R" unicode="R" horiz-adv-x="348" 
d="M291 17v171c0 51 -15 91 -44 119c-11 11 -22 18 -35 25c17 7 30 17 41 30c25 29 37 74 37 135c0 123 -49 178 -156 178h-106c-8 0 -15 -7 -15 -15v-643c0 -9 7 -16 15 -16c11 0 16 5 16 16v300h90c80 0 126 -46 126 -129v-171c0 -9 7 -16 15 -16c11 0 16 5 16 16zM44 644
h90c88 0 124 -43 124 -147c0 -108 -37 -149 -124 -149h-90v296z" />
    <glyph glyph-name="S" unicode="S" horiz-adv-x="352" 
d="M161 314l31 -15c13 -6 25 -14 37 -24c23 -21 42 -53 42 -101c0 -89 -41 -142 -113 -142c-24 0 -52 4 -74 25c-22 20 -39 57 -39 122c0 9 -7 16 -15 16c-11 0 -16 -5 -16 -16c0 -116 48 -178 144 -178c47 0 83 17 109 51c23 31 36 73 36 122c0 59 -24 97 -52 123
s-61 39 -78 47l-16 7c-20 8 -47 21 -70 43c-24 22 -42 54 -42 102c0 87 42 148 113 148c76 0 113 -47 113 -148c0 -8 7 -16 16 -16s16 8 16 16c0 117 -49 179 -145 179c-93 0 -144 -78 -144 -179c0 -59 23 -97 51 -124c27 -28 59 -42 79 -50z" />
    <glyph glyph-name="T" unicode="T" horiz-adv-x="380" 
d="M324 675h-323c-8 0 -15 -7 -15 -15c0 -9 7 -16 15 -16h146v-627c0 -11 5 -16 16 -16c8 0 16 7 16 16v627h145c11 0 16 5 16 16c0 8 -7 15 -16 15z" />
    <glyph glyph-name="U" unicode="U" horiz-adv-x="348" 
d="M9 660v-494c0 -68 19 -109 45 -133c26 -25 58 -32 89 -32s64 7 90 32c26 24 43 65 43 133v494c0 8 -7 15 -16 15c-8 0 -15 -7 -15 -15v-494c0 -60 -15 -93 -35 -112s-46 -22 -67 -22c-23 0 -48 3 -68 22s-35 52 -35 112v494c0 8 -7 15 -15 15c-9 0 -16 -7 -16 -15z" />
    <glyph glyph-name="V" unicode="V" horiz-adv-x="401" 
d="M6 656l161 -643c2 -8 7 -12 15 -12c9 0 14 4 16 12l160 643c3 8 -3 16 -11 19s-16 -3 -19 -12l-146 -581l-145 581c-3 9 -11 15 -19 12c-9 -3 -15 -11 -12 -19z" />
    <glyph glyph-name="W" unicode="W" horiz-adv-x="651" 
d="M304 586l127 -573c1 -8 6 -12 15 -12s14 4 15 12l142 643c3 8 -3 16 -12 19c-8 1 -16 -4 -19 -12l-126 -573l-126 573c-2 8 -7 12 -16 12s-14 -4 -15 -12l-127 -573l-126 573c-2 9 -8 13 -19 12c-8 -3 -15 -11 -12 -19l142 -643c2 -8 7 -12 15 -12c9 0 14 4 16 12z" />
    <glyph glyph-name="X" unicode="X" horiz-adv-x="392" 
d="M193 338l148 314c4 8 0 18 -8 21c-7 4 -17 1 -21 -7l-137 -291l-137 291c-5 9 -12 12 -21 7c-8 -3 -11 -13 -8 -21l149 -314l-149 -315c-3 -9 -1 -16 8 -21c1 -1 4 -1 7 -1c6 0 11 3 14 9l137 291l137 -291c3 -6 8 -9 15 -9c3 0 5 0 6 1c8 4 12 13 8 21z" />
    <glyph glyph-name="Y" unicode="Y" horiz-adv-x="417" 
d="M211 334l174 318c5 7 2 17 -6 21c-7 4 -17 1 -21 -6l-163 -296l-162 296c-5 7 -14 10 -22 6s-10 -14 -6 -21l174 -318v-318c0 -8 7 -15 16 -15s16 7 16 15v318z" />
    <glyph glyph-name="Z" unicode="Z" horiz-adv-x="409" 
d="M19 1h301c9 0 16 7 16 15c0 11 -5 16 -16 16h-277l291 620c5 9 -2 23 -14 23h-301c-11 0 -16 -5 -16 -16s5 -16 16 -16h276l-291 -620c-4 -9 2 -22 15 -22z" />
    <glyph glyph-name="a" unicode="a" horiz-adv-x="392" 
d="M342 19l-149 643c-2 8 -7 12 -16 12c-8 0 -13 -4 -15 -12l-149 -643c-3 -8 3 -16 12 -19c8 -3 16 4 19 12l45 194h177l45 -194c2 -8 7 -12 15 -12h4c8 3 15 11 12 19zM177 589l82 -352h-163z" />
    <glyph glyph-name="b" unicode="b" horiz-adv-x="336" 
d="M30 0h95c103 0 149 59 149 176c0 59 -12 103 -35 132c-10 12 -22 22 -37 29c15 8 26 17 37 30c23 29 35 73 35 131c0 117 -46 176 -149 176h-95c-9 0 -16 -7 -16 -15v-643c0 -11 5 -16 16 -16zM46 643h79c84 0 117 -41 117 -145c0 -103 -34 -145 -117 -145h-79v290z
M46 322h79c83 0 117 -42 117 -146s-33 -145 -117 -145h-79v291z" />
    <glyph glyph-name="c" unicode="c" horiz-adv-x="344" 
d="M10 496v-317c0 -75 19 -118 47 -145s64 -34 96 -34c33 0 69 7 97 34s47 70 47 145c0 11 -5 16 -16 16s-16 -5 -16 -16c0 -100 -37 -148 -112 -148c-72 0 -112 48 -112 148v317c0 100 39 147 112 147c76 0 112 -47 112 -147c0 -11 5 -16 16 -16s16 5 16 16
c0 73 -19 119 -47 145s-64 33 -97 33c-32 0 -68 -7 -96 -33s-47 -72 -47 -145z" />
    <glyph glyph-name="d" unicode="d" horiz-adv-x="348" 
d="M28 0h99c107 0 156 62 156 182v310c0 120 -49 182 -156 182h-99c-9 0 -16 -7 -16 -15v-643c0 -11 5 -16 16 -16zM43 643h84c87 0 124 -47 124 -151v-310c0 -104 -37 -151 -124 -151h-84v612z" />
    <glyph glyph-name="e" unicode="e" horiz-adv-x="312" 
d="M42 322h195c9 0 16 7 16 15c0 11 -5 16 -16 16h-195v290h195c11 0 16 5 16 16c0 8 -7 15 -16 15h-210c-9 0 -16 -7 -16 -15v-643c0 -11 5 -16 16 -16h210c11 0 16 5 16 16c0 8 -7 15 -16 15h-195v291z" />
    <glyph glyph-name="f" unicode="f" horiz-adv-x="308" 
d="M46 353v290h195c11 0 16 5 16 16c0 8 -7 15 -16 15h-210c-9 0 -16 -7 -16 -15v-643c0 -11 5 -16 16 -16c8 0 15 7 15 16v306h195c9 0 16 7 16 15c0 11 -5 16 -16 16h-195z" />
    <glyph glyph-name="g" unicode="g" horiz-adv-x="352" 
d="M7 497v-319c0 -116 49 -178 144 -178s144 62 144 178v104c0 11 -5 16 -16 16h-146c-11 0 -16 -5 -16 -16s5 -16 16 -16h130v-88c0 -103 -39 -147 -112 -147s-113 47 -113 147v319c0 65 17 102 39 122s50 24 74 24s52 -4 74 -24s38 -57 38 -122c0 -11 5 -16 16 -16
s16 5 16 16c0 116 -48 177 -144 177s-144 -61 -144 -177z" />
    <glyph glyph-name="h" unicode="h" horiz-adv-x="344" 
d="M280 16v643c0 8 -7 15 -16 15s-16 -7 -16 -15v-306h-204v306c0 8 -7 15 -16 15s-16 -7 -16 -15v-643c0 -11 5 -16 16 -16s16 5 16 16v305h204v-305c0 -11 5 -16 16 -16s16 5 16 16z" />
    <glyph glyph-name="i" unicode="i" horiz-adv-x="105" 
d="M18 659v-643c0 -11 5 -16 16 -16s16 5 16 16v643c0 8 -7 15 -16 15s-16 -7 -16 -15z" />
    <glyph glyph-name="dotlessi" unicode="&#x131;" horiz-adv-x="105" 
d="M18 659v-643c0 -11 5 -16 16 -16s16 5 16 16v643c0 8 -7 15 -16 15s-16 -7 -16 -15z" />
    <glyph glyph-name="j" unicode="j" horiz-adv-x="324" 
d="M236 659v-494c0 -92 -35 -134 -102 -134c-23 0 -48 3 -68 22s-35 52 -35 112c0 8 -7 16 -15 16c-9 0 -16 -8 -16 -16c0 -109 45 -165 134 -165s133 56 133 165v494c0 8 -7 15 -15 15c-9 0 -16 -7 -16 -15z" />
    <glyph glyph-name="k" unicode="k" horiz-adv-x="360" 
d="M127 364l190 286c5 7 3 17 -4 22c-7 4 -17 3 -22 -5l-252 -376v368c0 8 -7 15 -15 15c-9 0 -16 -7 -16 -15v-643c0 -11 5 -16 16 -16c8 0 15 7 15 16v217l68 102l183 -327c3 -5 8 -8 14 -8l8 2c7 4 10 14 6 21z" />
    <glyph glyph-name="l" unicode="l" horiz-adv-x="295" 
d="M21 0h226c11 0 16 5 16 16c0 8 -7 15 -16 15h-211v628c0 8 -7 15 -15 15c-9 0 -16 -7 -16 -15v-643c0 -11 5 -16 16 -16z" />
    <glyph glyph-name="m" unicode="m" horiz-adv-x="473" 
d="M376 546v-530c0 -11 5 -16 16 -16c8 0 16 7 16 16v643c0 17 -26 21 -31 4l-170 -590l-169 590c-5 17 -31 13 -31 -4v-643c0 -11 5 -16 16 -16s16 5 16 16v530l153 -535c3 -7 8 -11 15 -11c8 0 13 4 16 11z" />
    <glyph glyph-name="n" unicode="n" horiz-adv-x="360" 
d="M285 0h3c9 2 13 7 13 16v643c0 8 -7 15 -16 15s-16 -7 -16 -15v-562l-228 567c-7 16 -31 12 -31 -5v-643c0 -11 5 -16 16 -16s16 5 16 16v561l229 -567c2 -7 7 -10 14 -10z" />
    <glyph glyph-name="o" unicode="o" horiz-adv-x="348" 
d="M10 496v-317c0 -75 19 -118 47 -145s64 -34 96 -34c33 0 69 7 97 34s47 70 47 145v317c0 116 -48 178 -144 178c-95 0 -143 -63 -143 -178zM41 179v317c0 100 36 147 112 147c75 0 112 -44 112 -147v-317c0 -104 -39 -148 -112 -148c-75 0 -112 47 -112 148z" />
    <glyph glyph-name="p" unicode="p" horiz-adv-x="340" 
d="M10 659v-643c0 -11 5 -16 16 -16s16 5 16 16v306h90c108 0 156 57 156 176s-48 176 -156 176h-106c-9 0 -16 -7 -16 -15zM42 643h90c88 0 124 -41 124 -145s-37 -145 -124 -145h-90v290z" />
    <glyph glyph-name="q" unicode="q" horiz-adv-x="348" 
d="M295 1l-38 46c0 1 0 1 1 1v1c23 30 35 74 35 133v317c0 117 -47 175 -143 175c-95 0 -143 -60 -143 -175v-317c0 -115 48 -182 143 -182c35 0 63 8 84 25l36 -44c3 -4 7 -6 13 -6c4 0 7 1 9 4c7 5 8 15 3 22zM180 92l34 -43c-17 -12 -39 -18 -64 -18
c-73 0 -112 50 -112 151v317c0 99 37 144 112 144s112 -45 112 -144v-317c0 -48 -9 -85 -26 -110l-32 40c-7 7 -14 7 -22 2c-7 -7 -9 -15 -2 -22z" />
    <glyph glyph-name="r" unicode="r" horiz-adv-x="348" 
d="M291 17v171c0 51 -15 91 -44 119c-11 11 -22 18 -35 25c17 7 30 17 41 30c25 29 37 74 37 135c0 123 -49 178 -156 178h-106c-8 0 -15 -7 -15 -15v-643c0 -9 7 -16 15 -16c11 0 16 5 16 16v300h90c80 0 126 -46 126 -129v-171c0 -9 7 -16 15 -16c11 0 16 5 16 16zM44 644
h90c88 0 124 -43 124 -147c0 -108 -37 -149 -124 -149h-90v296z" />
    <glyph glyph-name="s" unicode="s" horiz-adv-x="352" 
d="M161 314l31 -15c13 -6 25 -14 37 -24c23 -21 42 -53 42 -101c0 -89 -41 -142 -113 -142c-24 0 -52 4 -74 25c-22 20 -39 57 -39 122c0 9 -7 16 -15 16c-11 0 -16 -5 -16 -16c0 -116 48 -178 144 -178c47 0 83 17 109 51c23 31 36 73 36 122c0 59 -24 97 -52 123
s-61 39 -78 47l-16 7c-20 8 -47 21 -70 43c-24 22 -42 54 -42 102c0 87 42 148 113 148c76 0 113 -47 113 -148c0 -8 7 -16 16 -16s16 8 16 16c0 117 -49 179 -145 179c-93 0 -144 -78 -144 -179c0 -59 23 -97 51 -124c27 -28 59 -42 79 -50z" />
    <glyph glyph-name="t" unicode="t" horiz-adv-x="380" 
d="M324 675h-323c-8 0 -15 -7 -15 -15c0 -9 7 -16 15 -16h146v-627c0 -11 5 -16 16 -16c8 0 16 7 16 16v627h145c11 0 16 5 16 16c0 8 -7 15 -16 15z" />
    <glyph glyph-name="u" unicode="u" horiz-adv-x="348" 
d="M9 660v-494c0 -68 19 -109 45 -133c26 -25 58 -32 89 -32s64 7 90 32c26 24 43 65 43 133v494c0 8 -7 15 -16 15c-8 0 -15 -7 -15 -15v-494c0 -60 -15 -93 -35 -112s-46 -22 -67 -22c-23 0 -48 3 -68 22s-35 52 -35 112v494c0 8 -7 15 -15 15c-9 0 -16 -7 -16 -15z" />
    <glyph glyph-name="v" unicode="v" horiz-adv-x="401" 
d="M6 656l161 -643c2 -8 7 -12 15 -12c9 0 14 4 16 12l160 643c3 8 -3 16 -11 19s-16 -3 -19 -12l-146 -581l-145 581c-3 9 -11 15 -19 12c-9 -3 -15 -11 -12 -19z" />
    <glyph glyph-name="w" unicode="w" horiz-adv-x="651" 
d="M304 586l127 -573c1 -8 6 -12 15 -12s14 4 15 12l142 643c3 8 -3 16 -12 19c-8 1 -16 -4 -19 -12l-126 -573l-126 573c-2 8 -7 12 -16 12s-14 -4 -15 -12l-127 -573l-126 573c-2 9 -8 13 -19 12c-8 -3 -15 -11 -12 -19l142 -643c2 -8 7 -12 15 -12c9 0 14 4 16 12z" />
    <glyph glyph-name="x" unicode="x" horiz-adv-x="392" 
d="M193 338l148 314c4 8 0 18 -8 21c-7 4 -17 1 -21 -7l-137 -291l-137 291c-5 9 -12 12 -21 7c-8 -3 -11 -13 -8 -21l149 -314l-149 -315c-3 -9 -1 -16 8 -21c1 -1 4 -1 7 -1c6 0 11 3 14 9l137 291l137 -291c3 -6 8 -9 15 -9c3 0 5 0 6 1c8 4 12 13 8 21z" />
    <glyph glyph-name="y" unicode="y" horiz-adv-x="417" 
d="M211 334l174 318c5 7 2 17 -6 21c-7 4 -17 1 -21 -6l-163 -296l-162 296c-5 7 -14 10 -22 6s-10 -14 -6 -21l174 -318v-318c0 -8 7 -15 16 -15s16 7 16 15v318z" />
    <glyph glyph-name="z" unicode="z" horiz-adv-x="409" 
d="M19 1h301c9 0 16 7 16 15c0 11 -5 16 -16 16h-277l291 620c5 9 -2 23 -14 23h-301c-11 0 -16 -5 -16 -16s5 -16 16 -16h276l-291 -620c-4 -9 2 -22 15 -22z" />
    <glyph glyph-name="zero" unicode="0" horiz-adv-x="356" 
d="M10 496v-317c0 -75 19 -118 47 -145s64 -34 96 -34c33 0 69 7 97 34s47 70 47 145v317c0 116 -48 178 -144 178c-95 0 -143 -63 -143 -178zM41 179v317c0 100 36 147 112 147c75 0 112 -44 112 -147v-317c0 -104 -39 -148 -112 -148c-75 0 -112 47 -112 148z" />
    <glyph glyph-name="one" unicode="1" horiz-adv-x="194" 
d="M100 615v-599c0 -11 5 -16 16 -16s16 5 16 16v643c0 15 -19 22 -28 10l-95 -115c-7 -7 -5 -16 2 -23c7 -5 15 -5 22 2z" />
    <glyph glyph-name="two" unicode="2" horiz-adv-x="320" 
d="M34 0h218c8 0 16 7 16 16c0 8 -8 15 -16 15h-202c3 108 34 181 103 244c77 69 115 148 115 238c0 93 -44 161 -125 161c-83 0 -125 -58 -125 -165c0 -11 5 -16 16 -16c8 0 15 7 15 16c0 92 31 134 94 134c59 0 93 -49 93 -130s-35 -152 -104 -214
c-43 -39 -72 -81 -91 -132c-15 -41 -23 -92 -23 -151c0 -11 5 -16 16 -16z" />
    <glyph glyph-name="three" unicode="3" horiz-adv-x="303" 
d="M78 321h30c19 0 49 -9 76 -34c19 -19 43 -53 43 -113c0 -87 -36 -143 -93 -143c-60 0 -94 47 -94 147c0 9 -7 16 -15 16c-11 0 -16 -5 -16 -16c0 -113 40 -178 125 -178c76 0 125 67 125 174c0 71 -29 112 -53 135c-11 11 -24 20 -38 27c12 7 25 16 38 28
c24 23 53 66 53 135c0 99 -45 175 -125 175c-85 0 -125 -66 -125 -179c0 -11 5 -16 16 -16c8 0 15 7 15 16c0 99 31 148 94 148c59 0 93 -59 93 -144c0 -51 -18 -87 -41 -111c-24 -24 -54 -36 -78 -36h-30c-8 0 -15 -7 -15 -16c0 -8 7 -15 15 -15z" />
    <glyph glyph-name="four" unicode="4" horiz-adv-x="324" 
d="M245 206v-190c0 -11 5 -16 16 -16c8 0 16 7 16 16v643c0 16 -22 22 -30 7l-241 -437c-7 -11 2 -23 14 -23h225zM245 237h-199l199 360v-360z" />
    <glyph glyph-name="five" unicode="5" horiz-adv-x="310" 
d="M261 176v71c0 56 -10 98 -31 127c-21 31 -53 46 -94 46c-39 0 -70 -17 -94 -51v274h203c8 0 16 7 16 16c0 8 -8 15 -16 15h-218c-9 0 -16 -7 -16 -15v-413c0 -11 5 -16 16 -16c8 0 15 7 15 16v1c0 85 37 141 94 141c61 0 93 -41 93 -141v-71c0 -84 -37 -145 -93 -145
c-60 0 -94 46 -94 145c0 9 -7 16 -15 16c-11 0 -16 -5 -16 -16c0 -112 42 -176 125 -176c40 0 72 18 95 55c19 31 30 74 30 121z" />
    <glyph glyph-name="six" unicode="6" horiz-adv-x="312" 
d="M8 453v-295c0 -100 46 -158 125 -158c41 0 73 19 95 56c19 32 30 76 30 124v73c0 113 -40 176 -125 176c-39 0 -70 -17 -93 -51v75c0 36 3 83 16 122s37 68 77 68c60 0 93 -44 93 -123c0 -8 8 -15 16 -15c9 0 16 7 16 15c0 93 -42 154 -125 154c-23 0 -55 -7 -80 -38
s-45 -87 -45 -183zM40 158v96c0 87 34 144 93 144c61 0 93 -44 93 -145v-73c0 -21 -2 -41 -6 -59c-8 -37 -28 -90 -87 -90c-40 0 -64 20 -77 46s-16 57 -16 81z" />
    <glyph glyph-name="seven" unicode="7" horiz-adv-x="376" 
d="M303 643l-259 -621c-4 -8 0 -17 8 -21c1 -1 3 -1 6 -1c7 0 12 3 15 10l268 642c4 11 -3 22 -15 22h-307c-8 0 -15 -7 -15 -15c0 -9 7 -16 15 -16h284z" />
    <glyph glyph-name="eight" unicode="8" horiz-adv-x="332" 
d="M216 337c13 8 24 18 33 30c21 28 32 72 32 131c0 119 -42 176 -135 176c-95 0 -136 -60 -136 -176c0 -58 11 -102 32 -131c9 -13 21 -23 34 -30c-13 -7 -25 -17 -34 -30c-21 -29 -32 -73 -32 -131c0 -116 41 -176 136 -176c93 0 135 57 135 176c0 59 -11 103 -32 131
c-9 13 -20 23 -33 30zM67 386c-17 23 -25 60 -25 112c0 104 32 145 104 145s103 -41 103 -145s-31 -145 -103 -145c-36 0 -62 11 -79 33zM224 64c-16 -22 -42 -33 -78 -33c-72 0 -104 41 -104 145s32 146 104 146s103 -42 103 -146c0 -52 -8 -89 -25 -112z" />
    <glyph glyph-name="nine" unicode="9" horiz-adv-x="308" 
d="M224 296v-76c0 -43 -3 -90 -17 -126c-14 -37 -37 -63 -76 -63c-60 0 -93 45 -93 132c0 11 -5 16 -16 16s-16 -5 -16 -16c0 -99 42 -163 125 -163c85 0 125 83 125 220v298c0 97 -42 156 -125 156c-76 0 -125 -70 -125 -178v-74c0 -116 42 -178 125 -178c40 0 72 19 93 52
zM38 422v74c0 88 36 147 93 147c61 0 93 -42 93 -125v-97c0 -21 -2 -41 -6 -59c-9 -36 -28 -86 -87 -86c-61 0 -93 42 -93 146z" />
    <glyph glyph-name="asterisk" unicode="*" horiz-adv-x="295" 
d="M157 541l82 31c8 3 12 12 9 20s-12 13 -20 9l-82 -30v87c0 11 -5 16 -16 16s-16 -5 -16 -16v-87l-82 30c-8 4 -17 -1 -20 -9s1 -17 9 -20l82 -31l-62 -70c-3 -3 -5 -7 -4 -11c0 -8 7 -15 16 -15c5 0 9 2 12 5l65 74l65 -74c3 -3 7 -5 12 -5c4 0 7 1 10 4c7 7 9 15 2 22z
" />
    <glyph glyph-name="backslash" unicode="\" horiz-adv-x="380" 
d="M32 653l236 -643c3 -7 8 -10 15 -10c3 0 5 0 6 1c8 3 12 12 9 20l-236 643c-3 9 -10 12 -21 9c-8 -3 -12 -12 -9 -20z" />
    <glyph glyph-name="bullet" unicode="&#x2022;" 
 />
    <glyph glyph-name="colon" unicode=":" horiz-adv-x="113" 
d="M44 454v45c0 8 -7 15 -15 15c-9 0 -16 -7 -16 -15v-45c0 -11 5 -16 16 -16c8 0 15 7 15 16zM44 179v44c0 9 -7 16 -15 16c-11 0 -16 -5 -16 -16v-44c0 -11 5 -16 16 -16c8 0 15 7 15 16z" />
    <glyph glyph-name="comma" unicode="," horiz-adv-x="85" 
d="M11 28v-51c0 -11 5 -16 16 -16s16 5 16 16v51c0 11 -5 16 -16 16s-16 -5 -16 -16z" />
    <glyph glyph-name="exclam" unicode="!" horiz-adv-x="93" 
d="M42 114v545c0 8 -7 15 -16 15s-16 -7 -16 -15v-545c0 -11 5 -16 16 -16s16 5 16 16zM42 16v12c0 8 -7 15 -16 15s-16 -7 -16 -15v-12c0 -11 5 -16 16 -16s16 5 16 16z" />
    <glyph glyph-name="numbersign" unicode="#" horiz-adv-x="542" 
d="M368 447l41 209c3 8 -4 15 -12 18c-9 3 -16 -4 -19 -12l-42 -215h-141l41 209c3 8 -4 15 -13 18c-8 3 -15 -4 -18 -12l-42 -215h-136c-11 0 -16 -5 -16 -16c0 -8 7 -15 16 -15h130l-31 -158h-131c-8 0 -15 -7 -15 -16c0 -8 7 -16 15 -16h125l-41 -207c-3 -9 4 -16 12 -19
h3c9 0 14 4 16 13l42 213h141l-41 -207c-1 -11 3 -17 13 -19h3c9 0 14 4 15 13l42 213h117c8 0 15 8 15 16c0 9 -7 16 -15 16h-111l31 158h111c9 0 16 7 16 15c0 11 -5 16 -16 16h-105zM158 258l31 158h141l-31 -158h-141z" />
    <glyph glyph-name="period" unicode="." horiz-adv-x="81" 
d="M46 16v12c0 8 -7 15 -16 15s-16 -7 -16 -15v-12c0 -11 5 -16 16 -16s16 5 16 16z" />
    <glyph glyph-name="question" unicode="?" horiz-adv-x="303" 
d="M127 116v3c0 105 15 181 42 212c4 4 8 8 15 13c15 12 34 29 50 55s29 60 29 108c0 47 -10 86 -30 117c-23 34 -54 51 -95 51c-84 0 -125 -65 -125 -173c0 -8 7 -15 16 -15s16 7 16 15c0 49 8 85 25 108c15 23 37 34 68 34c29 0 52 -13 69 -38c16 -24 24 -59 24 -99
c0 -41 -10 -69 -23 -91s-31 -36 -44 -48c-8 -5 -14 -11 -18 -16c-21 -23 -34 -61 -41 -103c-8 -42 -9 -90 -9 -130v-3c0 -11 5 -16 16 -16c8 0 15 7 15 16zM127 17v12c0 8 -7 15 -16 15s-16 -7 -16 -15v-12c0 -11 5 -16 16 -16s16 5 16 16z" />
    <glyph glyph-name="quotedbl" unicode="&#x22;" horiz-adv-x="162" 
d="M42 602v57c0 11 -5 16 -16 16c-8 0 -15 -7 -15 -16v-57c0 -8 7 -15 15 -15c9 0 16 7 16 15zM102 602v57c0 11 -5 16 -16 16s-16 -5 -16 -16v-57c0 -8 7 -15 16 -15s16 7 16 15z" />
    <glyph glyph-name="quotesingle" unicode="'" horiz-adv-x="81" 
d="M42 602v57c0 11 -5 16 -16 16c-8 0 -15 -7 -15 -16v-57c0 -8 7 -15 15 -15c9 0 16 7 16 15z" />
    <glyph glyph-name="semicolon" unicode=";" horiz-adv-x="97" 
d="M44 454v45c0 8 -7 15 -16 15s-16 -7 -16 -15v-45c0 -11 5 -16 16 -16s16 5 16 16zM44 143v80c0 11 -5 16 -16 16s-16 -5 -16 -16v-80c0 -11 5 -16 16 -16s16 5 16 16z" />
    <glyph glyph-name="slash" unicode="/" horiz-adv-x="384" 
d="M266 664l-236 -643c-3 -8 1 -17 9 -20c1 -1 3 -1 6 -1c7 0 12 3 15 10l236 643c3 8 -1 17 -9 20c-11 3 -18 0 -21 -9z" />
    <glyph glyph-name="underscore" unicode="_" horiz-adv-x="461" 
d="M26 -32h372c11 0 16 5 16 16c0 8 -7 15 -16 15h-372c-9 0 -16 -7 -16 -15c0 -11 5 -16 16 -16z" />
    <glyph glyph-name="braceleft" unicode="{" 
 />
    <glyph glyph-name="braceright" unicode="}" 
 />
    <glyph glyph-name="bracketleft" unicode="[" 
 />
    <glyph glyph-name="bracketright" unicode="]" 
 />
    <glyph glyph-name="parenleft" unicode="(" horiz-adv-x="166" 
d="M88 19l17 -15c4 -3 9 -4 14 -2s13 11 8 22c-1 3 -3 5 -6 6c-5 3 -9 7 -13 12c-8 9 -17 25 -27 46c-19 41 -41 117 -41 249s22 208 41 251c5 11 10 21 15 28c9 15 18 24 26 31c2 2 4 4 5 7c2 5 1 10 -2 16c-2 3 -4 5 -7 6c-5 1 -10 0 -14 -3l-16 -15
c-10 -10 -21 -27 -32 -52c-24 -50 -47 -133 -47 -269c0 -115 15 -204 46 -267c11 -25 22 -42 33 -51z" />
    <glyph glyph-name="parenright" unicode=")" horiz-adv-x="158" 
d="M17 647h-1c1 0 5 -4 14 -13c8 -9 17 -24 27 -46c19 -43 41 -119 41 -251c0 -33 -1 -63 -4 -89c-5 -52 -14 -92 -23 -122s-19 -51 -29 -66s-18 -25 -25 -30c-3 -1 -5 -3 -6 -6c-3 -4 -4 -9 1 -16c7 -12 16 -7 21 -4l18 15c10 9 21 26 33 51c30 64 45 153 45 267
c0 136 -23 219 -46 269c-11 25 -22 42 -32 52c-11 9 -16 14 -17 15c-4 3 -9 4 -14 3s-11 -10 -10 -15c0 -5 3 -10 7 -14z" />
    <glyph glyph-name="emdash" unicode="&#x2014;" horiz-adv-x="299" 
d="M257 321v31h-244v-31h244z" />
    <glyph glyph-name="endash" unicode="&#x2013;" horiz-adv-x="299" 
d="M257 321v31h-244v-31h244z" />
    <glyph glyph-name="hyphen" unicode="-" horiz-adv-x="299" 
d="M23 322h213c8 0 15 7 15 16s-7 16 -15 16h-213c-11 0 -16 -5 -16 -16s5 -16 16 -16z" />
    <glyph glyph-name="quotedblleft" unicode="&#x201c;" horiz-adv-x="162" 
d="M42 602v57c0 11 -5 16 -16 16c-8 0 -15 -7 -15 -16v-57c0 -8 7 -15 15 -15c9 0 16 7 16 15zM102 602v57c0 11 -5 16 -16 16s-16 -5 -16 -16v-57c0 -8 7 -15 16 -15s16 7 16 15z" />
    <glyph glyph-name="quotedblright" unicode="&#x201d;" horiz-adv-x="162" 
d="M42 602v57c0 11 -5 16 -16 16c-8 0 -15 -7 -15 -16v-57c0 -8 7 -15 15 -15c9 0 16 7 16 15zM102 602v57c0 11 -5 16 -16 16s-16 -5 -16 -16v-57c0 -8 7 -15 16 -15s16 7 16 15z" />
    <glyph glyph-name="quoteleft" unicode="&#x2018;" horiz-adv-x="81" 
d="M42 602v57c0 11 -5 16 -16 16c-8 0 -15 -7 -15 -16v-57c0 -8 7 -15 15 -15c9 0 16 7 16 15z" />
    <glyph glyph-name="quoteright" unicode="&#x2019;" horiz-adv-x="81" 
d="M42 602v57c0 11 -5 16 -16 16c-8 0 -15 -7 -15 -16v-57c0 -8 7 -15 15 -15c9 0 16 7 16 15z" />
    <glyph glyph-name="space" unicode=" " horiz-adv-x="210" 
 />
    <glyph glyph-name="CR" unicode="&#xd;" horiz-adv-x="210" 
 />
    <glyph glyph-name=".null" horiz-adv-x="0" 
 />
    <glyph glyph-name="dollar" unicode="$" horiz-adv-x="320" 
d="M154 16v33c65 8 109 62 109 149c0 47 -17 78 -37 99c-21 21 -48 34 -65 42l-3 2c-1 0 -3 0 -4 1v251c19 -3 37 -8 52 -26s25 -48 25 -96c0 -11 5 -16 16 -16s16 5 16 16c0 57 -14 95 -34 119c-21 23 -48 32 -75 35v34c0 8 -7 15 -16 15s-16 -7 -16 -15v-35
c-65 -7 -109 -66 -109 -153c0 -47 17 -78 38 -100s47 -35 64 -44c1 -1 3 -1 4 -2l3 -2v-243c-19 1 -37 9 -52 27s-25 47 -25 95c0 11 -5 16 -16 16s-16 -5 -16 -16c0 -59 14 -95 35 -118c20 -23 47 -32 74 -35v-33c0 -11 5 -16 16 -16s16 5 16 16zM122 593v-234
c-17 8 -36 20 -51 37c-16 16 -26 40 -26 75c0 28 5 55 18 78c12 23 31 40 59 44zM154 81v226c16 -8 36 -18 51 -34c15 -17 26 -40 26 -75c0 -68 -28 -110 -77 -117z" />
    <glyph glyph-name="asciitilde" unicode="~" 
 />
    <glyph glyph-name="equal" unicode="=" horiz-adv-x="312" 
d="M23 422h213c8 0 15 7 15 16s-7 16 -15 16h-213c-11 0 -16 -5 -16 -16s5 -16 16 -16zM23 222h213c8 0 15 7 15 16s-7 16 -15 16h-213c-11 0 -16 -5 -16 -16s5 -16 16 -16z" />
    <glyph glyph-name="greater" unicode="&#x3e;" 
 />
    <glyph glyph-name="less" unicode="&#x3c;" 
 />
    <glyph glyph-name="percent" unicode="%" horiz-adv-x="449" 
d="M76 9l288 643c3 9 1 16 -8 21c-9 3 -16 1 -21 -8l-288 -643c-4 -8 0 -17 8 -21c1 -1 3 -1 6 -1c7 0 12 3 15 9zM164 450v86c0 55 -34 92 -82 92s-82 -37 -82 -92v-86c0 -55 34 -92 82 -92s82 37 82 92zM31 450v86c0 28 14 60 51 60s50 -32 50 -60v-86
c0 -28 -13 -60 -50 -60s-51 32 -51 60zM408 137v86c0 55 -33 91 -81 91c-49 0 -82 -36 -82 -91v-86c0 -55 33 -92 82 -92c48 0 81 37 81 92zM377 223v-86c0 -28 -13 -61 -50 -61c-39 0 -51 33 -51 61v86c0 13 3 28 11 40s21 20 40 20s31 -8 39 -20s11 -27 11 -40z" />
    <glyph glyph-name="plus" unicode="+" horiz-adv-x="384" 
d="M184 351v130c0 11 -5 16 -16 16s-16 -5 -16 -16v-130h-130c-11 0 -16 -5 -16 -16s5 -16 16 -16h130v-130c0 -11 5 -16 16 -16s16 5 16 16v130h130c11 0 16 5 16 16s-5 16 -16 16h-130z" />
    <glyph glyph-name="ampersand" unicode="&#x26;" horiz-adv-x="429" 
d="M368 24l-47 79c1 1 1 1 1 2c28 60 31 132 31 183c0 11 -5 16 -16 16c-8 0 -15 -7 -15 -16c0 -43 -3 -100 -20 -151l-132 225c11 11 27 30 41 59s24 68 24 116c0 28 -1 64 -13 91c-13 31 -37 46 -72 46c-61 0 -84 -48 -84 -137c0 -33 12 -68 25 -99s30 -58 39 -71
c-6 -5 -12 -10 -17 -15l-18 -16c-24 -20 -48 -40 -66 -67s-30 -59 -30 -103c0 -95 60 -166 151 -166c68 0 119 24 153 72l38 -64c3 -5 8 -8 13 -8c3 0 5 1 8 2c8 4 10 14 6 22zM150 643c16 0 30 -4 39 -20s15 -42 15 -86c0 -45 -11 -86 -32 -121c-7 -11 -14 -20 -19 -27
c-9 15 -23 38 -35 65s-21 56 -21 83c0 47 7 73 17 88s23 18 36 18zM147 339l138 -237c-27 -47 -72 -71 -135 -71c-41 0 -71 17 -90 42c-20 25 -29 60 -29 93c0 37 9 65 25 87c15 22 36 39 60 59c5 5 11 9 16 14c5 4 10 8 15 13z" />
    <glyph glyph-name="asciicircum" unicode="^" 
 />
    <glyph glyph-name="at" unicode="@" horiz-adv-x="647" 
d="M331 1h22c80 4 153 30 212 71c7 7 8 14 3 23c-5 7 -15 8 -22 3c-55 -40 -124 -61 -194 -65s-142 10 -198 45c-88 55 -127 149 -108 268c12 77 46 136 89 177s93 64 141 75c52 11 103 7 148 -9c44 -16 82 -45 107 -85c19 -28 29 -67 33 -107c3 -41 -4 -82 -17 -117
c-11 -27 -33 -48 -59 -63c-26 -16 -56 -24 -77 -24c-7 0 -11 1 -16 2c-27 8 -17 30 -13 55l16 91c6 34 10 62 13 81l2 14c3 9 -4 17 -13 18c-8 3 -15 -4 -18 -12c0 -3 0 -5 -1 -8c-3 3 -6 6 -8 7c-23 16 -58 18 -77 18c-75 0 -113 -44 -124 -127c-9 -85 26 -123 99 -123
c31 0 55 1 76 16c-4 -31 11 -53 40 -60c29 -8 69 -1 106 19c36 19 68 48 83 84c16 40 22 87 19 132c-4 44 -16 88 -37 121c-29 45 -72 78 -122 97s-109 23 -166 11c-63 -13 -118 -43 -162 -88c-50 -51 -81 -114 -93 -190c-21 -133 23 -237 123 -300c55 -33 121 -50 193 -50z
M271 241c-56 0 -76 20 -67 87c8 68 36 99 92 99c13 0 25 -1 36 -3c20 -4 29 -10 36 -25c3 -8 3 -21 0 -40c-9 -57 -20 -89 -35 -104c-12 -12 -29 -14 -62 -14z" />
    <glyph glyph-name="bar" unicode="|" horiz-adv-x="89" 
d="M8 659v-643c0 -11 5 -16 16 -16s16 5 16 16v643c0 8 -7 15 -16 15s-16 -7 -16 -15z" />
    <glyph glyph-name="copyright" unicode="&#xa9;" 
 />
    <glyph glyph-name="registered" unicode="&#xae;" 
 />
    <glyph glyph-name="trademark" unicode="&#x2122;" horiz-adv-x="853" 
 />
    <glyph glyph-name="breve" unicode="&#x2d8;" 
 />
    <glyph glyph-name="caron" unicode="&#x2c7;" 
 />
    <glyph glyph-name="circumflex" unicode="&#x2c6;" 
 />
    <glyph glyph-name="dotaccent" unicode="&#x2d9;" 
 />
    <glyph glyph-name="grave" unicode="`" horiz-adv-x="81" 
d="M42 602v57c0 11 -5 16 -16 16c-8 0 -15 -7 -15 -16v-57c0 -8 7 -15 15 -15c9 0 16 7 16 15z" />
    <glyph glyph-name="hungarumlaut" unicode="&#x2dd;" 
 />
    <glyph glyph-name="ogonek" unicode="&#x2db;" 
 />
    <glyph glyph-name="ring" unicode="&#x2da;" 
 />
    <glyph glyph-name="tilde" unicode="&#x2dc;" 
 />
    <glyph glyph-name="g116" horiz-adv-x="0" 
 />
  </font>
</defs>
</svg>
